# xmcd
#
# Track frame offsets:
#	150
#	20795
#	40330
#	62157
#	80772
#	101690
#	119082
#	138095
#	157065
#	178932
#	196540
#	217084
#	234372
#	256960
#	274132
#
# Disc length: 3924 seconds
#
# Revision: 1
# Processed by: cddbd v1.5.2PL0 Copyright (c) Steve Scherf et al.
# Submitted via: audiograbber 1.83.01
#
DISCID=e00f520f
DTITLE=Various Artist - SC8422
DYEAR=1900
DGENRE=Karaoke
TTITLE0=Braxton, Toni and Kenny G - How Could An Angel Break My Heart
TTITLE1=Hanson - I Will Come To You
TTITLE2=Carey, Mariah - Butterfly
TTITLE3=Sugar Ray - Fly
TTITLE4=Barlow, Gary - So Help Me Girl
TTITLE5=Coppola, Imani - Legend Of A Cowgirl
TTITLE6=Aaliyah - One I Gave My Heart To, The
TTITLE7=John, Elton - Something About The Way You Look Tonight
TTITLE8=Brooks, Meredith - What Would Happen
TTITLE9=Lewis, Donna and Richard Marx - At The Beginning
TTITLE10=Bolton, Michael - Best Of Love, The
TTITLE11=Loeb, Lisa - I Do
TTITLE12=Streisand, Barbra and Celine Dion - Tell Him
TTITLE13=Chumbawamba - Tubthumping (I Get Knocked Down)
TTITLE14=Savage Garden - Truly Madly Deeply
EXTD=
EXTT0=
EXTT1=
EXTT2=
EXTT3=
EXTT4=
EXTT5=
EXTT6=
EXTT7=
EXTT8=
EXTT9=
EXTT10=
EXTT11=
EXTT12=
EXTT13=
EXTT14=
PLAYORDER=
